<svg version="1.1" xmlns="http://www.w3.org/2000/svg" viewBox="299.5 299.5 401 300.5"><path id="circle" d="M557.57 481.245c0 31.975-25.85 57.826-57.826 57.826-31.974 0-57.825-25.852-57.825-57.826s25.852-57.827 57.825-57.827c31.977 0 57.826 25.853 57.826 57.827z"/><g id="pop-group"><path d="M441.919 484.307l-43.54.68M460.627 523.934l-31.464 32.485M501.956 539.071l.17 42.179M541.073 521.554l29.594 29.423M557.401 482.436l44.221-.681M541.073 440.937l29.594-30.614M501.616 423.418V381.75M459.096 440.087l-29.933-29.764"/></g><g id="cross"><path d="M473.763 455.263l52.475 52.474M526.238 455.263l-52.474 52.474"/></g></svg>